<svg id="svg" version="1.1" xmlns="http://www.w3.org/2000/svg" xmlns:xlink="http://www.w3.org/1999/xlink" width="400" height="400" viewBox="0, 0, 400,400"><g id="svgg"><path id="path0" d="M0.000 200.000 L 0.000 400.000 200.000 400.000 L 400.000 400.000 400.000 200.000 L 400.000 0.000 200.000 0.000 L 0.000 0.000 0.000 200.000 M219.574 45.854 C 231.811 49.576,252.000 60.852,252.000 63.966 C 252.000 64.818,249.330 66.621,246.066 67.973 C 235.428 72.379,235.020 74.519,242.080 88.860 C 245.611 96.032,248.442 104.398,248.371 107.450 C 248.189 115.296,255.459 133.318,263.321 144.505 C 272.488 157.550,268.091 182.169,256.915 180.369 C 254.762 180.023,249.400 179.454,245.000 179.106 C 238.504 178.593,236.311 177.307,233.335 172.269 C 230.703 167.814,227.321 165.473,221.335 163.964 C 211.649 161.523,206.833 159.389,200.255 154.624 L 195.510 151.187 200.255 160.515 C 202.865 165.645,214.551 179.583,226.224 191.488 C 256.954 222.827,263.907 240.650,249.870 252.106 C 243.821 257.043,243.155 258.578,243.511 266.764 C 244.075 279.705,242.984 280.000,194.514 280.000 C 147.229 280.000,144.440 279.301,146.695 268.025 C 147.845 262.275,147.157 260.687,141.221 255.386 L 134.432 249.323 138.388 240.162 C 140.563 235.123,142.701 226.050,143.137 220.000 L 143.930 209.000 139.657 222.572 L 135.384 236.145 130.692 222.728 C 124.498 205.017,124.770 198.629,132.081 190.076 C 135.337 186.267,138.000 181.828,138.000 180.212 C 138.000 178.595,135.107 181.036,131.572 185.636 C 123.533 196.095,122.993 196.057,120.162 184.814 C 117.337 173.595,118.367 170.000,127.143 160.445 C 136.645 150.100,135.701 148.338,125.247 156.905 L 116.494 164.077 114.214 155.019 C 111.915 145.890,115.093 136.000,120.326 136.000 C 122.634 136.000,132.000 126.076,132.000 123.630 C 132.000 122.648,130.265 123.454,128.144 125.422 C 126.023 127.390,121.622 130.568,118.364 132.483 L 112.439 135.967 111.124 128.956 C 109.132 118.339,113.302 111.576,124.045 108.000 C 134.431 104.543,138.000 102.492,138.000 99.984 C 138.000 99.005,135.075 99.388,131.500 100.836 C 115.630 107.262,114.219 106.951,116.273 97.484 C 118.458 87.412,124.100 82.052,132.722 81.859 C 144.660 81.592,147.948 78.294,136.430 78.141 C 117.497 77.889,133.951 58.100,153.302 57.848 C 164.888 57.697,164.936 57.672,158.290 55.267 C 134.945 46.817,193.279 37.858,219.574 45.854 M185.000 58.381 C 187.200 59.623,191.544 62.746,194.653 65.320 C 197.763 67.894,201.248 70.000,202.398 70.000 C 206.057 70.000,199.620 63.887,191.713 59.854 C 183.689 55.760,178.245 54.566,185.000 58.381 M180.000 62.618 C 180.000 64.057,181.338 66.982,182.973 69.118 C 185.692 72.670,185.760 72.447,183.777 66.500 C 181.513 59.713,180.000 58.158,180.000 62.618 M172.400 114.048 C 161.764 127.520,159.484 147.886,166.787 164.194 C 169.704 170.710,169.774 170.745,168.417 165.000 C 165.088 150.906,166.847 132.892,172.246 125.772 C 181.201 113.963,181.349 102.713,172.400 114.048 M228.384 111.872 C 231.012 116.080,235.446 117.871,239.695 116.443 C 241.488 115.840,240.483 114.278,236.695 111.781 C 228.937 106.666,225.159 106.707,228.384 111.872 M188.142 163.000 C 188.108 164.955,207.506 190.035,216.788 200.035 C 224.509 208.354,232.000 225.129,232.000 234.100 C 232.000 243.027,236.431 244.575,237.673 236.081 C 239.647 222.583,233.373 211.298,210.000 186.306 C 201.750 177.484,193.465 168.181,191.589 165.633 C 189.713 163.085,188.162 161.900,188.142 163.000 M229.951 285.974 C 232.077 287.112,234.191 291.209,234.940 295.646 C 235.799 300.730,239.323 306.867,245.316 313.719 C 259.853 330.336,260.889 330.000,195.063 330.000 L 138.000 330.000 138.000 325.374 C 138.000 322.806,140.748 318.136,144.179 314.874 C 151.720 307.704,156.000 299.857,156.000 293.199 C 156.000 290.449,157.575 287.281,159.500 286.160 C 164.021 283.527,225.077 283.365,229.951 285.974 M202.000 292.000 C 202.000 293.109,207.294 294.000,213.882 294.000 C 220.417 294.000,226.320 293.100,227.000 292.000 C 227.776 290.744,223.354 290.000,215.118 290.000 C 207.706 290.000,202.000 290.870,202.000 292.000 M263.016 337.142 C 271.298 341.072,275.301 345.450,277.061 352.500 L 278.434 358.000 195.217 358.000 C 104.180 358.000,107.653 358.494,115.416 346.646 C 123.024 335.035,129.030 334.092,195.698 334.044 C 246.788 334.007,257.443 334.497,263.016 337.142 M224.017 339.990 C 220.532 342.143,224.973 343.302,238.589 343.794 C 251.519 344.261,258.665 342.694,256.867 339.784 C 255.513 337.594,227.611 337.768,224.017 339.990 " stroke="none" fill="#FFFFFF" fill-rule="evenodd"></path></g></svg>